<svg height="464pt" viewBox="-64 0 464 464" width="464pt" xmlns="http://www.w3.org/2000/svg"><path d="m120.800781 385.761719c-65.359375 5.039062-112.800781 20.238281-112.800781 38.238281 0 22.078125 71.601562 40 160 40s160-17.921875 160-40c0-18-47.441406-33.199219-112.800781-38.238281-26.71875 32.398437-47.199219 54.238281-47.199219 54.238281s-20.480469-21.839844-47.199219-54.238281zm0 0" fill="#00b6bd"/><path d="m336 168c0 60.398438-71.199219 157.359375-120.800781 217.761719-26.71875 32.398437-47.199219 54.238281-47.199219 54.238281s-20.480469-21.839844-47.199219-54.238281c-49.601562-60.402344-120.800781-157.363281-120.800781-217.761719 0-92.785156 75.214844-168 168-168s168 75.214844 168 168zm0 0" fill="#c49a6c"/><path d="m232 176v-8c0-4.417969-3.582031-8-8-8h-112c-4.417969 0-8 3.582031-8 8v40c.039062 35.328125 28.671875 63.960938 64 64 22.828125.085938 43.929688-12.148438 55.199219-32h8.800781c17.671875 0 32-14.328125 32-32s-14.328125-32-32-32zm11.304688 43.304688c-2.988282 3.015624-7.058594 4.707031-11.304688 4.695312h-2.015625c.070313-.28125.09375-.566406.160156-.847656.40625-1.65625.703125-3.351563.96875-5.046875.125-.800781.3125-1.601563.40625-2.402344.316407-2.554687.476563-5.128906.480469-7.703125v-16c6.464844.007812 12.289062 3.90625 14.765625 9.878906 2.472656 5.972656 1.105469 12.847656-3.460937 17.425782zm0 0" fill="#e0e0e2"/><path d="m232 288h-128c-4.417969 0-8-3.582031-8-8s3.582031-8 8-8h128c4.417969 0 8 3.582031 8 8s-3.582031 8-8 8zm0 0" fill="#e0e0e2"/><g fill="#ffaf46"><path d="m184 136c-4.417969 0-8-3.582031-8-8 .4375-7.441406 4.855469-14.066406 11.558594-17.328125 3.128906-2.085937 4.441406-3.105469 4.441406-4s-1.3125-1.929687-4.441406-4c-6.710938-3.265625-11.132813-9.90625-11.558594-17.359375.433594-7.441406 4.859375-14.066406 11.566406-17.3125 3.121094-2.089844 4.433594-3.105469 4.433594-4 0-4.417969 3.582031-8 8-8s8 3.582031 8 8c-.433594 7.441406-4.859375 14.066406-11.566406 17.320312-3.121094 2.078126-4.433594 3.085938-4.433594 4 0 .910157 1.3125 1.925782 4.441406 4 6.703125 3.261719 11.125 9.890626 11.558594 17.335938-.429688 7.445312-4.851562 14.082031-11.558594 17.34375-3.128906 2.089844-4.441406 3.105469-4.441406 4 0 4.417969-3.582031 8-8 8zm0 0"/><path d="m144 152c-4.417969 0-8-3.582031-8-8 .4375-7.441406 4.855469-14.066406 11.558594-17.328125 3.128906-2.085937 4.441406-3.105469 4.441406-4s-1.3125-1.929687-4.441406-4c-6.710938-3.265625-11.132813-9.90625-11.558594-17.359375.433594-7.441406 4.859375-14.066406 11.566406-17.3125 3.121094-2.089844 4.433594-3.105469 4.433594-4 0-4.417969 3.582031-8 8-8s8 3.582031 8 8c-.433594 7.441406-4.859375 14.066406-11.566406 17.320312-3.121094 2.078126-4.433594 3.085938-4.433594 4 0 .910157 1.3125 1.925782 4.441406 4 6.703125 3.261719 11.125 9.890626 11.558594 17.335938-.429688 7.445312-4.851562 14.082031-11.558594 17.34375-3.128906 2.089844-4.441406 3.105469-4.441406 4 0 4.417969-3.582031 8-8 8zm0 0"/></g></svg>